<svg version="1.1" id="Layer_1" xmlns="http://www.w3.org/2000/svg" xmlns:xlink="http://www.w3.org/1999/xlink" x="0px" y="0px"
	 width="100%" viewBox="0 0 200 200" enable-background="new 0 0 200 200" xml:space="preserve">
<path fill="#DF5939" opacity="1.000000" stroke="none" 
	d="
M200.000000,1.000000 
	C200.333328,2.331259 200.957306,3.662305 200.958282,4.993805 
	C201.005920,70.245743 201.000000,135.497726 201.000000,201.000000 
	C134.333542,201.000000 67.666771,201.000000 1.347041,200.532272 
	C2.200042,199.635742 2.739772,199.240692 3.207181,198.773346 
	C68.089607,133.897919 132.968689,69.019165 197.823792,4.116441 
	C198.705627,3.233947 199.281387,2.045594 200.000000,1.000000 
z"/>
<path fill="#FFFFFE" opacity="1.000000" stroke="none" 
	d="
M199.533966,0.999999 
	C199.281387,2.045594 198.705627,3.233947 197.823792,4.116441 
	C132.968689,69.019165 68.089607,133.897919 3.207181,198.773346 
	C2.739772,199.240692 2.200042,199.635742 1.347041,200.032272 
	C1.000000,133.738770 1.000000,67.477539 1.000000,1.000000 
	C67.022484,1.000000 133.045212,1.000000 199.533966,0.999999 
z"/>
</svg>